<?xml version="1.0" encoding="UTF-8" standalone="no"?>
<!DOCTYPE svg PUBLIC "-//W3C//DTD SVG 1.1//EN"
 "http://www.w3.org/Graphics/SVG/1.1/DTD/svg11.dtd">
<!-- Generated by graphviz version 2.38.0 (20140413.2041)
 -->
<!-- Title: lala Pages: 1 -->
<svg width="566pt" height="260pt"
 viewBox="0.00 0.00 566.00 260.00" xmlns="http://www.w3.org/2000/svg" xmlns:xlink="http://www.w3.org/1999/xlink">
<g id="graph0" class="graph" transform="scale(1 1) rotate(0) translate(4 256)">
<title>lala</title>
<polygon fill="white" stroke="none" points="-4,4 -4,-256 562,-256 562,4 -4,4"/>
<!-- 0 -->
<g id="node1" class="node"><title>0</title>
<ellipse fill="none" stroke="black" cx="387" cy="-234" rx="27" ry="18"/>
<text text-anchor="middle" x="387" y="-229.8" font-family="Times,serif" font-size="14.00">0</text>
</g>
<!-- 7 -->
<g id="node8" class="node"><title>7</title>
<ellipse fill="none" stroke="black" cx="243" cy="-162" rx="27" ry="18"/>
<text text-anchor="middle" x="243" y="-157.8" font-family="Times,serif" font-size="14.00">7</text>
</g>
<!-- 0&#45;&gt;7 -->
<g id="edge1" class="edge"><title>0&#45;&gt;7</title>
<path fill="none" stroke="black" d="M365.752,-222.671C341.398,-210.832 301.281,-191.331 273.572,-177.862"/>
<polygon fill="black" stroke="black" points="274.859,-174.595 264.335,-173.371 271.798,-180.891 274.859,-174.595"/>
</g>
<!-- 11 -->
<g id="node12" class="node"><title>11</title>
<ellipse fill="none" stroke="black" cx="459" cy="-162" rx="27" ry="18"/>
<text text-anchor="middle" x="459" y="-157.8" font-family="Times,serif" font-size="14.00">11</text>
</g>
<!-- 0&#45;&gt;11 -->
<g id="edge16" class="edge"><title>0&#45;&gt;11</title>
<path fill="none" stroke="black" d="M401.57,-218.834C411.75,-208.938 425.524,-195.546 437.031,-184.359"/>
<polygon fill="black" stroke="black" points="439.474,-186.865 444.204,-177.385 434.595,-181.846 439.474,-186.865"/>
</g>
<!-- 1 -->
<g id="node2" class="node"><title>1</title>
<ellipse fill="none" stroke="black" cx="531" cy="-234" rx="27" ry="18"/>
<text text-anchor="middle" x="531" y="-229.8" font-family="Times,serif" font-size="14.00">(1)</text>
</g>
<!-- 1&#45;&gt;11 -->
<g id="edge15" class="edge"><title>1&#45;&gt;11</title>
<path fill="none" stroke="black" d="M516.43,-218.834C506.25,-208.938 492.476,-195.546 480.969,-184.359"/>
<polygon fill="black" stroke="black" points="483.405,-181.846 473.796,-177.385 478.526,-186.865 483.405,-181.846"/>
</g>
<!-- 2 -->
<g id="node3" class="node"><title>2</title>
<ellipse fill="none" stroke="black" cx="315" cy="-234" rx="27" ry="18"/>
<text text-anchor="middle" x="315" y="-229.8" font-family="Times,serif" font-size="14.00">(2)</text>
</g>
<!-- 8 -->
<g id="node9" class="node"><title>8</title>
<ellipse fill="none" stroke="black" cx="387" cy="-162" rx="27" ry="18"/>
<text text-anchor="middle" x="387" y="-157.8" font-family="Times,serif" font-size="14.00">8</text>
</g>
<!-- 2&#45;&gt;8 -->
<g id="edge5" class="edge"><title>2&#45;&gt;8</title>
<path fill="none" stroke="black" d="M329.57,-218.834C339.75,-208.938 353.524,-195.546 365.031,-184.359"/>
<polygon fill="black" stroke="black" points="367.474,-186.865 372.204,-177.385 362.595,-181.846 367.474,-186.865"/>
</g>
<!-- 9 -->
<g id="node10" class="node"><title>9</title>
<ellipse fill="none" stroke="black" cx="315" cy="-162" rx="27" ry="18"/>
<text text-anchor="middle" x="315" y="-157.8" font-family="Times,serif" font-size="14.00">9</text>
</g>
<!-- 2&#45;&gt;9 -->
<g id="edge9" class="edge"><title>2&#45;&gt;9</title>
<path fill="none" stroke="black" d="M315,-215.697C315,-207.983 315,-198.712 315,-190.112"/>
<polygon fill="black" stroke="black" points="318.5,-190.104 315,-180.104 311.5,-190.104 318.5,-190.104"/>
</g>
<!-- 3 -->
<g id="node4" class="node"><title>3</title>
<ellipse fill="none" stroke="black" cx="243" cy="-234" rx="27" ry="18"/>
<text text-anchor="middle" x="243" y="-229.8" font-family="Times,serif" font-size="14.00">(3)</text>
</g>
<!-- 3&#45;&gt;7 -->
<g id="edge2" class="edge"><title>3&#45;&gt;7</title>
<path fill="none" stroke="black" d="M243,-215.697C243,-207.983 243,-198.712 243,-190.112"/>
<polygon fill="black" stroke="black" points="246.5,-190.104 243,-180.104 239.5,-190.104 246.5,-190.104"/>
</g>
<!-- 3&#45;&gt;8 -->
<g id="edge4" class="edge"><title>3&#45;&gt;8</title>
<path fill="none" stroke="black" d="M264.248,-222.671C288.602,-210.832 328.719,-191.331 356.428,-177.862"/>
<polygon fill="black" stroke="black" points="358.202,-180.891 365.665,-173.371 355.141,-174.595 358.202,-180.891"/>
</g>
<!-- 3&#45;&gt;9 -->
<g id="edge8" class="edge"><title>3&#45;&gt;9</title>
<path fill="none" stroke="black" d="M257.57,-218.834C267.75,-208.938 281.524,-195.546 293.031,-184.359"/>
<polygon fill="black" stroke="black" points="295.474,-186.865 300.204,-177.385 290.595,-181.846 295.474,-186.865"/>
</g>
<!-- 10 -->
<g id="node11" class="node"><title>10</title>
<ellipse fill="none" stroke="black" cx="99" cy="-162" rx="27" ry="18"/>
<text text-anchor="middle" x="99" y="-157.8" font-family="Times,serif" font-size="14.00">10</text>
</g>
<!-- 3&#45;&gt;10 -->
<g id="edge12" class="edge"><title>3&#45;&gt;10</title>
<path fill="none" stroke="black" d="M221.752,-222.671C197.398,-210.832 157.281,-191.331 129.572,-177.862"/>
<polygon fill="black" stroke="black" points="130.859,-174.595 120.335,-173.371 127.798,-180.891 130.859,-174.595"/>
</g>
<!-- 3&#45;&gt;11 -->
<g id="edge17" class="edge"><title>3&#45;&gt;11</title>
<path fill="none" stroke="black" d="M264.028,-222.226C268.871,-219.983 274.053,-217.767 279,-216 341.125,-193.809 360.875,-202.191 423,-180 424.855,-179.337 426.743,-178.612 428.634,-177.845"/>
<polygon fill="black" stroke="black" points="430.204,-180.979 437.972,-173.774 427.406,-174.562 430.204,-180.979"/>
</g>
<!-- 12 -->
<g id="node13" class="node"><title>12</title>
<ellipse fill="none" stroke="black" cx="27" cy="-162" rx="27" ry="18"/>
<text text-anchor="middle" x="27" y="-157.8" font-family="Times,serif" font-size="14.00">12</text>
</g>
<!-- 3&#45;&gt;12 -->
<g id="edge20" class="edge"><title>3&#45;&gt;12</title>
<path fill="none" stroke="black" d="M221.972,-222.226C217.129,-219.983 211.947,-217.767 207,-216 144.875,-193.809 125.125,-202.191 63,-180 61.1449,-179.337 59.2567,-178.612 57.3657,-177.845"/>
<polygon fill="black" stroke="black" points="58.5939,-174.562 48.0284,-173.774 55.7963,-180.979 58.5939,-174.562"/>
</g>
<!-- 13 -->
<g id="node14" class="node"><title>13</title>
<ellipse fill="none" stroke="black" cx="171" cy="-162" rx="27" ry="18"/>
<text text-anchor="middle" x="171" y="-157.8" font-family="Times,serif" font-size="14.00">13</text>
</g>
<!-- 3&#45;&gt;13 -->
<g id="edge23" class="edge"><title>3&#45;&gt;13</title>
<path fill="none" stroke="black" d="M228.43,-218.834C218.25,-208.938 204.476,-195.546 192.969,-184.359"/>
<polygon fill="black" stroke="black" points="195.405,-181.846 185.796,-177.385 190.526,-186.865 195.405,-181.846"/>
</g>
<!-- 4 -->
<g id="node5" class="node"><title>4</title>
<ellipse fill="none" stroke="black" cx="99" cy="-234" rx="27" ry="18"/>
<text text-anchor="middle" x="99" y="-229.8" font-family="Times,serif" font-size="14.00">(4)</text>
</g>
<!-- 4&#45;&gt;10 -->
<g id="edge14" class="edge"><title>4&#45;&gt;10</title>
<path fill="none" stroke="black" d="M99,-215.697C99,-207.983 99,-198.712 99,-190.112"/>
<polygon fill="black" stroke="black" points="102.5,-190.104 99,-180.104 95.5001,-190.104 102.5,-190.104"/>
</g>
<!-- 4&#45;&gt;12 -->
<g id="edge22" class="edge"><title>4&#45;&gt;12</title>
<path fill="none" stroke="black" d="M84.4297,-218.834C74.2501,-208.938 60.4761,-195.546 48.9694,-184.359"/>
<polygon fill="black" stroke="black" points="51.4055,-181.846 41.7957,-177.385 46.5259,-186.865 51.4055,-181.846"/>
</g>
<!-- 4&#45;&gt;13 -->
<g id="edge25" class="edge"><title>4&#45;&gt;13</title>
<path fill="none" stroke="black" d="M113.57,-218.834C123.75,-208.938 137.524,-195.546 149.031,-184.359"/>
<polygon fill="black" stroke="black" points="151.474,-186.865 156.204,-177.385 146.595,-181.846 151.474,-186.865"/>
</g>
<!-- 5 -->
<g id="node6" class="node"><title>5</title>
<ellipse fill="none" stroke="black" cx="171" cy="-234" rx="27" ry="18"/>
<text text-anchor="middle" x="171" y="-229.8" font-family="Times,serif" font-size="14.00">(5)</text>
</g>
<!-- 5&#45;&gt;7 -->
<g id="edge3" class="edge"><title>5&#45;&gt;7</title>
<path fill="none" stroke="black" d="M185.57,-218.834C195.75,-208.938 209.524,-195.546 221.031,-184.359"/>
<polygon fill="black" stroke="black" points="223.474,-186.865 228.204,-177.385 218.595,-181.846 223.474,-186.865"/>
</g>
<!-- 5&#45;&gt;8 -->
<g id="edge6" class="edge"><title>5&#45;&gt;8</title>
<path fill="none" stroke="black" d="M192.028,-222.226C196.871,-219.983 202.053,-217.767 207,-216 269.125,-193.809 288.875,-202.191 351,-180 352.855,-179.337 354.743,-178.612 356.634,-177.845"/>
<polygon fill="black" stroke="black" points="358.204,-180.979 365.972,-173.774 355.406,-174.562 358.204,-180.979"/>
</g>
<!-- 5&#45;&gt;9 -->
<g id="edge10" class="edge"><title>5&#45;&gt;9</title>
<path fill="none" stroke="black" d="M192.248,-222.671C216.602,-210.832 256.719,-191.331 284.428,-177.862"/>
<polygon fill="black" stroke="black" points="286.202,-180.891 293.665,-173.371 283.141,-174.595 286.202,-180.891"/>
</g>
<!-- 5&#45;&gt;10 -->
<g id="edge13" class="edge"><title>5&#45;&gt;10</title>
<path fill="none" stroke="black" d="M156.43,-218.834C146.25,-208.938 132.476,-195.546 120.969,-184.359"/>
<polygon fill="black" stroke="black" points="123.405,-181.846 113.796,-177.385 118.526,-186.865 123.405,-181.846"/>
</g>
<!-- 5&#45;&gt;11 -->
<g id="edge18" class="edge"><title>5&#45;&gt;11</title>
<path fill="none" stroke="black" d="M191.548,-222.107C196.503,-219.816 201.855,-217.61 207,-216 299.886,-186.945 330.114,-209.055 423,-180 424.93,-179.396 426.888,-178.709 428.844,-177.964"/>
<polygon fill="black" stroke="black" points="430.61,-181.017 438.452,-173.893 427.879,-174.572 430.61,-181.017"/>
</g>
<!-- 5&#45;&gt;12 -->
<g id="edge21" class="edge"><title>5&#45;&gt;12</title>
<path fill="none" stroke="black" d="M149.752,-222.671C125.398,-210.832 85.2814,-191.331 57.5723,-177.862"/>
<polygon fill="black" stroke="black" points="58.8588,-174.595 48.3349,-173.371 55.7984,-180.891 58.8588,-174.595"/>
</g>
<!-- 5&#45;&gt;13 -->
<g id="edge24" class="edge"><title>5&#45;&gt;13</title>
<path fill="none" stroke="black" d="M171,-215.697C171,-207.983 171,-198.712 171,-190.112"/>
<polygon fill="black" stroke="black" points="174.5,-190.104 171,-180.104 167.5,-190.104 174.5,-190.104"/>
</g>
<!-- 6 -->
<g id="node7" class="node"><title>6</title>
<ellipse fill="none" stroke="black" cx="459" cy="-234" rx="27" ry="18"/>
<text text-anchor="middle" x="459" y="-229.8" font-family="Times,serif" font-size="14.00">(6)</text>
</g>
<!-- 6&#45;&gt;8 -->
<g id="edge7" class="edge"><title>6&#45;&gt;8</title>
<path fill="none" stroke="black" d="M444.43,-218.834C434.25,-208.938 420.476,-195.546 408.969,-184.359"/>
<polygon fill="black" stroke="black" points="411.405,-181.846 401.796,-177.385 406.526,-186.865 411.405,-181.846"/>
</g>
<!-- 6&#45;&gt;9 -->
<g id="edge11" class="edge"><title>6&#45;&gt;9</title>
<path fill="none" stroke="black" d="M437.752,-222.671C413.398,-210.832 373.281,-191.331 345.572,-177.862"/>
<polygon fill="black" stroke="black" points="346.859,-174.595 336.335,-173.371 343.798,-180.891 346.859,-174.595"/>
</g>
<!-- 6&#45;&gt;11 -->
<g id="edge19" class="edge"><title>6&#45;&gt;11</title>
<path fill="none" stroke="black" d="M459,-215.697C459,-207.983 459,-198.712 459,-190.112"/>
<polygon fill="black" stroke="black" points="462.5,-190.104 459,-180.104 455.5,-190.104 462.5,-190.104"/>
</g>
<!-- 14 -->
<g id="node15" class="node"><title>14</title>
<ellipse fill="none" stroke="black" cx="243" cy="-90" rx="27" ry="18"/>
<text text-anchor="middle" x="243" y="-85.8" font-family="Times,serif" font-size="14.00">14</text>
</g>
<!-- 7&#45;&gt;14 -->
<g id="edge26" class="edge"><title>7&#45;&gt;14</title>
<path fill="none" stroke="black" d="M243,-143.697C243,-135.983 243,-126.712 243,-118.112"/>
<polygon fill="black" stroke="black" points="246.5,-118.104 243,-108.104 239.5,-118.104 246.5,-118.104"/>
</g>
<!-- 15 -->
<g id="node16" class="node"><title>15</title>
<ellipse fill="none" stroke="black" cx="315" cy="-90" rx="27" ry="18"/>
<text text-anchor="middle" x="315" y="-85.8" font-family="Times,serif" font-size="14.00">15</text>
</g>
<!-- 8&#45;&gt;15 -->
<g id="edge28" class="edge"><title>8&#45;&gt;15</title>
<path fill="none" stroke="black" d="M372.43,-146.834C362.25,-136.938 348.476,-123.546 336.969,-112.359"/>
<polygon fill="black" stroke="black" points="339.405,-109.846 329.796,-105.385 334.526,-114.865 339.405,-109.846"/>
</g>
<!-- 9&#45;&gt;14 -->
<g id="edge27" class="edge"><title>9&#45;&gt;14</title>
<path fill="none" stroke="black" d="M300.43,-146.834C290.25,-136.938 276.476,-123.546 264.969,-112.359"/>
<polygon fill="black" stroke="black" points="267.405,-109.846 257.796,-105.385 262.526,-114.865 267.405,-109.846"/>
</g>
<!-- 10&#45;&gt;15 -->
<g id="edge29" class="edge"><title>10&#45;&gt;15</title>
<path fill="none" stroke="black" d="M120.028,-150.226C124.871,-147.983 130.053,-145.767 135,-144 197.125,-121.809 216.875,-130.191 279,-108 280.855,-107.337 282.743,-106.612 284.634,-105.845"/>
<polygon fill="black" stroke="black" points="286.204,-108.979 293.972,-101.774 283.406,-102.562 286.204,-108.979"/>
</g>
<!-- 17 -->
<g id="node18" class="node"><title>17</title>
<ellipse fill="none" stroke="black" cx="135" cy="-18" rx="27" ry="18"/>
<text text-anchor="middle" x="135" y="-13.8" font-family="Times,serif" font-size="14.00">17</text>
</g>
<!-- 10&#45;&gt;17 -->
<g id="edge32" class="edge"><title>10&#45;&gt;17</title>
<path fill="none" stroke="black" d="M103.271,-144.153C109.442,-119.813 120.912,-74.5681 128.24,-45.6651"/>
<polygon fill="black" stroke="black" points="131.67,-46.3784 130.735,-35.825 124.884,-44.6582 131.67,-46.3784"/>
</g>
<!-- 16 -->
<g id="node17" class="node"><title>16</title>
<ellipse fill="none" stroke="black" cx="387" cy="-90" rx="27" ry="18"/>
<text text-anchor="middle" x="387" y="-85.8" font-family="Times,serif" font-size="14.00">16</text>
</g>
<!-- 11&#45;&gt;16 -->
<g id="edge30" class="edge"><title>11&#45;&gt;16</title>
<path fill="none" stroke="black" d="M444.43,-146.834C434.25,-136.938 420.476,-123.546 408.969,-112.359"/>
<polygon fill="black" stroke="black" points="411.405,-109.846 401.796,-105.385 406.526,-114.865 411.405,-109.846"/>
</g>
<!-- 13&#45;&gt;16 -->
<g id="edge31" class="edge"><title>13&#45;&gt;16</title>
<path fill="none" stroke="black" d="M192.028,-150.226C196.871,-147.983 202.053,-145.767 207,-144 269.125,-121.809 288.875,-130.191 351,-108 352.855,-107.337 354.743,-106.612 356.634,-105.845"/>
<polygon fill="black" stroke="black" points="358.204,-108.979 365.972,-101.774 355.406,-102.562 358.204,-108.979"/>
</g>
<!-- 14&#45;&gt;17 -->
<g id="edge33" class="edge"><title>14&#45;&gt;17</title>
<path fill="none" stroke="black" d="M224.188,-76.8069C206.998,-65.6653 181.382,-49.0622 162.007,-36.5043"/>
<polygon fill="black" stroke="black" points="163.892,-33.5553 153.597,-31.0533 160.084,-39.4294 163.892,-33.5553"/>
</g>
<!-- 18 -->
<g id="node19" class="node"><title>18</title>
<ellipse fill="none" stroke="black" cx="261" cy="-18" rx="27" ry="18"/>
<text text-anchor="middle" x="261" y="-13.8" font-family="Times,serif" font-size="14.00">18</text>
</g>
<!-- 14&#45;&gt;18 -->
<g id="edge34" class="edge"><title>14&#45;&gt;18</title>
<path fill="none" stroke="black" d="M247.357,-72.055C249.391,-64.1446 251.861,-54.5398 254.137,-45.6879"/>
<polygon fill="black" stroke="black" points="257.582,-46.3456 256.683,-35.789 250.803,-44.6023 257.582,-46.3456"/>
</g>
<!-- 15&#45;&gt;18 -->
<g id="edge35" class="edge"><title>15&#45;&gt;18</title>
<path fill="none" stroke="black" d="M303.016,-73.4647C296.024,-64.4021 287.064,-52.7865 279.215,-42.6119"/>
<polygon fill="black" stroke="black" points="281.83,-40.2719 272.951,-34.4918 276.288,-44.5475 281.83,-40.2719"/>
</g>
<!-- 19 -->
<g id="node20" class="node"><title>19</title>
<ellipse fill="none" stroke="black" cx="351" cy="-18" rx="27" ry="18"/>
<text text-anchor="middle" x="351" y="-13.8" font-family="Times,serif" font-size="14.00">19</text>
</g>
<!-- 15&#45;&gt;19 -->
<g id="edge36" class="edge"><title>15&#45;&gt;19</title>
<path fill="none" stroke="black" d="M323.35,-72.7646C327.712,-64.2831 333.147,-53.7144 338.041,-44.1974"/>
<polygon fill="black" stroke="black" points="341.235,-45.6409 342.696,-35.1473 335.01,-42.4395 341.235,-45.6409"/>
</g>
<!-- 16&#45;&gt;19 -->
<g id="edge37" class="edge"><title>16&#45;&gt;19</title>
<path fill="none" stroke="black" d="M378.65,-72.7646C374.288,-64.2831 368.853,-53.7144 363.959,-44.1974"/>
<polygon fill="black" stroke="black" points="366.99,-42.4395 359.304,-35.1473 360.765,-45.6409 366.99,-42.4395"/>
</g>
</g>
</svg>
